<svg width="25" height="26" viewBox="0 0 25 26" fill="none" xmlns="http://www.w3.org/2000/svg">
<path d="M10.8087 9.915C9.68865 11.0117 8.28865 11.56 6.60865 11.56C4.92865 11.56 3.51699 11 2.37365 9.88C1.25365 8.76 0.693652 7.395 0.693652 5.785C0.693652 4.175 1.25365 2.81 2.37365 1.69C3.51699 0.569999 4.92865 0.00999838 6.60865 0.00999838C8.28865 0.00999838 9.68865 0.569999 10.8087 1.69C11.9287 2.78667 12.4887 4.15167 12.4887 5.785C12.4887 7.41833 11.9287 8.795 10.8087 9.915ZM3.17865 21.29L19.1387 3.545L21.2737 4.735L5.27865 22.515L3.17865 21.29ZM4.99865 7.395C5.41865 7.815 5.94365 8.025 6.57365 8.025C7.20365 8.025 7.72865 7.815 8.14865 7.395C8.56865 6.95167 8.77865 6.415 8.77865 5.785C8.77865 5.155 8.56865 4.63 8.14865 4.21C7.72865 3.79 7.20365 3.58 6.57365 3.58C5.94365 3.58 5.41865 3.79 4.99865 4.21C4.60199 4.63 4.40365 5.155 4.40365 5.785C4.40365 6.415 4.60199 6.95167 4.99865 7.395ZM22.6387 23.74C21.5187 24.86 20.1187 25.42 18.4387 25.42C16.7587 25.42 15.3587 24.86 14.2387 23.74C13.1187 22.62 12.5587 21.255 12.5587 19.645C12.5587 18.035 13.1187 16.67 14.2387 15.55C15.3587 14.43 16.7587 13.87 18.4387 13.87C20.1187 13.87 21.5187 14.43 22.6387 15.55C23.7587 16.67 24.3187 18.035 24.3187 19.645C24.3187 21.255 23.7587 22.62 22.6387 23.74ZM16.8637 21.255C17.2837 21.675 17.8087 21.885 18.4387 21.885C19.0687 21.885 19.582 21.6633 19.9787 21.22C20.3987 20.7767 20.6087 20.2517 20.6087 19.645C20.6087 19.015 20.3987 18.49 19.9787 18.07C19.582 17.6267 19.0687 17.405 18.4387 17.405C17.8087 17.405 17.2837 17.6267 16.8637 18.07C16.467 18.49 16.2687 19.015 16.2687 19.645C16.2687 20.275 16.467 20.8117 16.8637 21.255Z" fill="black"/>
</svg>
